Coordinates
version=1
nRows=24
nColumns=38
inDegrees=no

Units are S.I. units (second, meters, Newtons, ...)
If the header above contains a line with 'inDegrees', this indicates whether rotational values are in degrees (yes) or radians (no).

endheader
time	pelvis_tilt	pelvis_list	pelvis_rotation	pelvis_tx	pelvis_ty	pelvis_tz	hip_flexion_r	hip_adduction_r	hip_rotation_r	knee_angle_r	ankle_angle_r	subtalar_angle_r	mtp_angle_r	hip_flexion_l	hip_adduction_l	hip_rotation_l	knee_angle_l	ankle_angle_l	subtalar_angle_l	mtp_angle_l	lumbar_extension	lumbar_bending	lumbar_rotation	arm_flex_r	arm_add_r	arm_rot_r	elbow_flex_r	pro_sup_r	wrist_flex_r	wrist_dev_r	arm_flex_l	arm_add_l	arm_rot_l	elbow_flex_l	pro_sup_l	wrist_flex_l	wrist_dev_l
21.99	1.59783	1.3694	-0.167046	0.566972	-0.450173	0.976714	0.0623515	0.0212329	-0.389556	0.401698	0.10291	0	0	-0.0954958	-0.101984	-0.340134	0	0.0544171	0	0	-0.126026	-0.103293	0.175313	0.371137	-0.577158	-0.0133575	1.12436	1.44527	0	0	0.711266	0.223839	0.63265	0.846017	1.5708	0	0
22	1.59662	1.36976	-0.165935	0.567173	-0.450306	0.976718	0.0632623	0.0209795	-0.38869	0.401703	0.102867	0	0	-0.0949714	-0.101909	-0.340239	0	0.0540893	0	0	-0.125692	-0.10247	0.175628	0.368869	-0.576741	-0.0157341	1.12911	1.45178	0	0	0.709226	0.221986	0.631724	0.85134	1.5708	0	0
22.01	1.59473	1.37017	-0.164327	0.5674	-0.450408	0.976708	0.0643334	0.0206269	-0.387943	0.401802	0.102996	0	0	-0.0943631	-0.101809	-0.340515	0	0.0538902	0	0	-0.125118	-0.101597	0.176169	0.366217	-0.576306	-0.0185583	1.13438	1.45927	0	0	0.706883	0.219763	0.631324	0.857547	1.5708	0	0
22.02	1.59264	1.37036	-0.162635	0.56768	-0.450497	0.976707	0.0653279	0.0205846	-0.387084	0.401677	0.102812	0	0	-0.0934154	-0.102075	-0.341218	0	0.0541258	0	0	-0.124428	-0.100474	0.177048	0.363335	-0.575618	-0.0222803	1.13973	1.46881	0	0	0.704331	0.217158	0.631775	0.864262	1.5708	0	0
22.03	1.59163	1.37032	-0.162036	0.567974	-0.45058	0.976726	0.0659123	0.0210529	-0.385287	0.401078	0.102533	0	0	-0.0924671	-0.10263	-0.342274	0	0.0546353	0	0	-0.124024	-0.0989753	0.17788	0.360318	-0.575211	-0.0253058	1.14598	1.47641	0	0	0.701218	0.213904	0.632328	0.872081	1.5708	0	0
22.04	1.59207	1.37086	-0.16256	0.568199	-0.450657	0.976757	0.0663381	0.0206475	-0.383987	0.400741	0.102497	0	0	-0.0926393	-0.102277	-0.342289	0	0.0540833	0	0	-0.12393	-0.0979973	0.17822	0.357016	-0.575034	-0.0270637	1.15284	1.482	0	0	0.697511	0.210132	0.632513	0.881121	1.5708	0	0
22.05	1.59264	1.37147	-0.163121	0.568404	-0.450727	0.976783	0.0667001	0.0200017	-0.382942	0.400316	0.102152	0	0	-0.0932281	-0.101716	-0.341739	0	0.0531603	0	0	-0.123725	-0.0970413	0.178795	0.353002	-0.574901	-0.0293903	1.16021	1.48684	0	0	0.693319	0.206128	0.632753	0.89118	1.5708	0	0
22.06	1.59186	1.37184	-0.162367	0.568659	-0.450783	0.97678	0.0672926	0.0196963	-0.381922	0.399795	0.101609	0	0	-0.093034	-0.101644	-0.34164	0	0.0529617	0	0	-0.123255	-0.0957396	0.179712	0.34772	-0.574543	-0.0334697	1.16976	1.49316	0	0	0.688177	0.201751	0.632102	0.9031	1.5708	0	0
22.07	1.5906	1.37198	-0.161303	0.568958	-0.450843	0.976768	0.068048	0.0197168	-0.380695	0.399471	0.101442	0	0	-0.0927649	-0.10185	-0.341652	0	0.0527695	0	0	-0.122579	-0.0941728	0.181037	0.341457	-0.574101	-0.0374438	1.18047	1.49899	0	0	0.682809	0.197276	0.63165	0.914609	1.5708	0	0
22.08	1.58903	1.37218	-0.160173	0.569298	-0.4509	0.976759	0.0689114	0.019664	-0.379083	0.39939	0.10174	0	0	-0.0922681	-0.1021	-0.342519	0	0.052971	0	0	-0.121766	-0.0927063	0.182837	0.33367	-0.573367	-0.0430022	1.19208	1.50906	0	0	0.676908	0.19251	0.631199	0.926599	1.5708	0	0
22.09	1.58816	1.3724	-0.159597	0.56967	-0.450934	0.976755	0.0695318	0.0196748	-0.377458	0.399048	0.101757	0	0	-0.0915737	-0.10244	-0.343764	0	0.0535335	0	0	-0.121011	-0.0912907	0.184631	0.324791	-0.572429	-0.048878	1.20432	1.51779	0	0	0.67071	0.187244	0.631526	0.938834	1.5708	0	0
22.1	1.58715	1.3723	-0.15883	0.570079	-0.450981	0.97672	0.0700925	0.0201795	-0.375537	0.398427	0.10148	0	0	-0.0905214	-0.103251	-0.345063	0	0.0548683	0	0	-0.120251	-0.0894946	0.186225	0.315922	-0.57122	-0.0543562	1.21659	1.52554	0	0	0.664227	0.181534	0.632361	0.951029	1.5708	0	0
22.11	1.58669	1.37263	-0.158386	0.570437	-0.45106	0.976688	0.0707981	0.0199567	-0.374204	0.398129	0.101431	0	0	-0.0902908	-0.103349	-0.345016	0	0.0549269	0	0	-0.119655	-0.0880851	0.187542	0.306997	-0.569996	-0.0590832	1.22886	1.53113	0	0	0.65773	0.175869	0.633583	0.962082	1.5708	0	0
22.12	1.58775	1.37341	-0.159299	0.570745	-0.451156	0.976701	0.0714135	0.0190388	-0.37309	0.39811	0.101651	0	0	-0.0910495	-0.102693	-0.344121	0	0.0536723	0	0	-0.119344	-0.0871211	0.18865	0.29801	-0.56866	-0.0631007	1.24057	1.53606	0	0	0.6509	0.170159	0.634371	0.972361	1.5708	0	0
22.13	1.58943	1.37408	-0.160826	0.571069	-0.451203	0.976701	0.0719746	0.0181734	-0.371741	0.398386	0.102049	0	0	-0.0916272	-0.102227	-0.343722	0	0.0531436	0	0	-0.119155	-0.0859667	0.189917	0.288454	-0.566978	-0.0680341	1.25269	1.54326	0	0	0.64245	0.163333	0.633496	0.985528	1.5708	0	0
22.14	1.59295	1.37471	-0.164072	0.571391	-0.451209	0.976694	0.0722555	0.0172357	-0.370368	0.399008	0.102272	0	0	-0.0922867	-0.10183	-0.343653	0	0.0531673	0	0	-0.119301	-0.0847429	0.190989	0.279188	-0.564707	-0.0726582	1.26465	1.55205	0	0	0.633525	0.156794	0.630972	0.998141	1.5708	0	0
22.15	1.59542	1.37515	-0.166495	0.571755	-0.45125	0.97668	0.0725812	0.0166436	-0.368837	0.399067	0.102102	0	0	-0.0926596	-0.101756	-0.343817	0	0.0532237	0	0	-0.119395	-0.0832566	0.192215	0.270121	-0.562341	-0.0771163	1.27658	1.56428	0	0	0.624705	0.150867	0.628595	1.01005	1.5708	0	0
22.16	1.59601	1.37532	-0.167291	0.572191	-0.451362	0.976669	0.0729355	0.016623	-0.367041	0.398087	0.101557	0	0	-0.0927055	-0.102071	-0.344034	0	0.0532265	0	0	-0.119271	-0.0815153	0.193423	0.261736	-0.559734	-0.0805166	1.28742	1.5708	0	0	0.61615	0.145191	0.626164	1.02115	1.5708	0	0
22.17	1.59841	1.37579	-0.169612	0.572606	-0.451456	0.976646	0.0732566	0.0160003	-0.365791	0.397855	0.101397	0	0	-0.0932312	-0.101893	-0.343828	0	0.0530729	0	0	-0.119393	-0.0800992	0.194216	0.253795	-0.557459	-0.0817313	1.29765	1.5708	0	0	0.607682	0.139406	0.622851	1.03223	1.5708	0	0
22.18	1.60175	1.37668	-0.172876	0.573018	-0.451547	0.976624	0.0736633	0.0147671	-0.364538	0.398058	0.10155	0	0	-0.0935894	-0.101389	-0.344525	0	0.0534257	0	0	-0.119871	-0.0790665	0.194632	0.246386	-0.554867	-0.0826238	1.30829	1.5708	0	0	0.598735	0.133668	0.61821	1.04492	1.5708	0	0
22.19	1.60538	1.37777	-0.176305	0.573413	-0.451653	0.976586	0.074268	0.0131373	-0.363589	0.398722	0.101892	0	0	-0.0936288	-0.100766	-0.345504	0	0.0541314	0	0	-0.120385	-0.078224	0.194736	0.239579	-0.552217	-0.082471	1.31823	1.5708	0	0	0.590162	0.127937	0.614005	1.05728	1.5708	0	0
22.2	1.60909	1.37882	-0.179776	0.573843	-0.45174	0.976529	0.0749151	0.0115792	-0.362492	0.399522	0.102295	0	0	-0.0940948	-0.10002	-0.345152	0	0.0541375	0	0	-0.120772	-0.0774469	0.195024	0.232597	-0.549391	-0.0827956	1.32754	1.5708	0	0	0.582118	0.122099	0.611251	1.06913	1.5708	0	0
22.21	1.61075	1.37975	-0.181487	0.574328	-0.451866	0.976468	0.0757535	0.0102799	-0.361257	0.39971	0.102493	0	0	-0.0943976	-0.099444	-0.344676	0	0.0537337	0	0	-0.120897	-0.0764522	0.195235	0.225922	-0.546304	-0.0824396	1.3371	1.5708	0	0	0.573814	0.11609	0.608172	1.08183	1.5708	0	0
22.22	1.61134	1.38047	-0.182324	0.574866	-0.452014	0.976445	0.0765968	0.0093154	-0.359936	0.399333	0.102235	0	0	-0.0947403	-0.0991514	-0.344267	0	0.0531183	0	0	-0.12097	-0.0752146	0.195416	0.219648	-0.542718	-0.0819186	1.34652	1.5708	0	0	0.565448	0.109911	0.605124	1.09486	1.5708	0	0
